<svg width="220" height="220" viewBox="0 0 220 220" fill="none" xmlns="http://www.w3.org/2000/svg">
<rect width="220" height="220" rx="12" fill="#B052F2"/>
<path fill-rule="evenodd" clip-rule="evenodd" d="M186.632 128.497H191.847L200.869 105.632H195.708L191.978 117.02L188.049 105.632H182.288L189.148 122.148L186.632 128.497ZM160.749 111.06V122.781H155.488V105.632H159.184L160.284 107.13C161.715 105.932 163.247 105.232 165.011 105.232C167.376 105.232 169.174 105.932 170.273 107.664C171.871 106.198 173.569 105.232 175.734 105.232C179.796 105.232 182.161 107.331 182.161 113.025V122.781H176.9V113.624C176.9 110.994 175.834 110.227 174.135 110.227C173.136 110.227 172.304 110.493 171.372 111.093C171.439 111.692 171.472 112.325 171.472 113.025V122.781H166.211V113.624C166.211 110.994 165.145 110.227 163.413 110.227C162.448 110.227 161.648 110.461 160.749 111.06ZM142.4 112.525H149.16C148.793 110.295 147.594 109.229 145.797 109.229C144.264 109.229 142.8 110.128 142.4 112.525L142.4 112.525ZM146.163 123.114C141.102 123.114 137.039 120.617 137.039 114.023C137.039 107.863 140.968 105.2 145.497 105.2C150.958 105.2 153.389 109.028 153.389 115.055H142.367C142.733 118.019 144.565 118.885 146.996 118.885C149.347 118.885 151.186 118.305 152.609 117.347L151.895 121.521C150.537 122.57 148.907 123.114 146.163 123.114ZM126.573 118.686C127.771 118.686 128.67 118.485 129.603 117.786V110.328C128.771 109.828 127.939 109.595 126.74 109.595C124.175 109.595 122.71 111.326 122.71 114.223C122.71 117.054 124.209 118.686 126.573 118.686L126.573 118.686ZM130.635 121.516C129.27 122.548 127.705 123.18 125.474 123.18C120.779 123.18 117.383 120.284 117.383 114.323C117.383 108.396 121.279 105.2 126.273 105.2C127.439 105.2 128.571 105.366 129.603 105.765V98.4866H134.865V122.781H131.534L130.635 121.516ZM95.0904 112.625V99.9156H100.551V112.525C100.551 117.053 102.582 117.986 105.379 117.986C108.41 117.986 109.974 116.653 109.974 112.525V99.9156H115.469V112.625C115.469 120.117 112.206 123.247 105.114 123.247C98.5197 123.247 95.0901 120.55 95.0901 112.625H95.0904Z" fill="white"/>
<path fill-rule="evenodd" clip-rule="evenodd" d="M81.1733 113.577C80.9586 113.402 80.7037 113.282 80.4314 113.229C78.8297 114.825 76.8753 116.507 75.1399 117.637C74.3389 118.169 73.3319 118.435 72.6649 118.435C71.1299 118.435 70.463 116.972 70.2626 114.645C69.9958 111.52 69.8156 107.778 69.8156 101.993C69.8156 96.0595 68.469 92.0261 64.882 91.7094C64.7275 91.695 64.5724 91.6874 64.4173 91.6866C62.2154 91.6866 61.1476 92.8167 59.7463 95.6764C58.5455 98.136 56.677 101.727 53.2079 108.508C50.2049 114.36 46.8688 119.546 43.9993 123.136C43.2002 124.132 42.5687 124.816 41.975 125.204C41.5783 125.465 41.1974 125.596 40.7969 125.596C39.6643 125.596 38.8374 124.64 38.5612 122.415C38.4957 121.886 38.461 121.286 38.461 120.61C38.461 116.022 40.1963 108.575 43.1983 97.604C45.4002 89.625 44.4665 84.174 39.6618 84.174H39.6081L39.6046 84.1749C38.5166 84.1875 37.6148 84.5814 36.7458 85.2654C35.8902 85.9387 35.0338 87.394 34.2347 89.35C33.3339 91.5536 27.8556 102.542 19.1364 108.203C19.0336 110.356 20.2522 112.507 22.7209 112.741C24.9684 112.953 26.564 112.006 28.6186 110.626C28.3431 111.854 28.0717 113.084 27.8044 114.314C27.6479 115.033 27.5483 115.495 27.5189 115.623C27.2477 116.856 27.0403 118.102 26.8975 119.357C25.6679 130.346 30.7618 135.769 36.7269 135.769C37.7238 135.769 38.7113 135.65 39.6925 135.401C46.2648 133.735 52.5918 126.196 60.0807 108.841C59.9673 110.729 59.9556 112.492 60.0371 114.128C60.5306 124.075 64.4647 127.059 70.023 127.059C74.2264 127.059 78.1631 124.865 80.1646 122.138C81.6332 120.21 82.2335 118.082 82.2335 116.42C82.2335 115.13 81.8244 114.1 81.1736 113.577" fill="white"/>
</svg>
