<svg width="220" height="220" viewBox="0 0 220 220" fill="none" xmlns="http://www.w3.org/2000/svg">
<rect width="220" height="220" rx="12" fill="#02B3E4"/>
<path d="M78.7963 112.203C78.7963 114.864 76.5387 117.122 73.5554 117.122C70.5721 117.122 68.3145 114.945 68.3145 112.203V102.608H66.7019V112.284C66.7019 115.751 69.3627 118.734 73.5554 118.734C77.7482 118.734 80.4089 115.67 80.4089 112.284V102.608H78.7963V112.203ZM95.9705 102.608H90.8908V118.734H95.9705C100.647 118.734 103.792 115.67 103.792 110.671C103.792 105.753 100.647 102.608 95.9705 102.608ZM95.8092 117.122H92.5034V104.221H95.8092C99.5988 104.221 102.179 106.882 102.179 110.671C102.179 114.703 99.6794 117.122 95.8092 117.122ZM140.881 117.122C137.172 117.122 134.511 114.058 134.511 110.349C134.511 106.64 137.172 103.818 140.881 103.818C143.784 103.818 145.638 105.511 145.638 105.511L146.445 104.382C146.445 104.382 144.59 102.366 140.801 102.366C136.366 102.366 132.899 105.834 132.899 110.349C132.899 114.864 136.205 118.734 140.881 118.734C144.751 118.734 146.848 116.073 146.848 116.073L145.961 115.025C145.88 115.025 144.026 117.122 140.881 117.122ZM157.007 118.734H158.62V102.608H157.007V118.734ZM167.489 104.221H173.133V118.734H174.746V104.221H180.39V102.608H167.489V104.221ZM199.096 102.608L194.097 109.865L189.017 102.608H187.243L193.29 111.558V118.734H194.903V111.558L200.87 102.608H199.096ZM117.418 102.608L111.048 118.734H112.741L114.435 114.138L121.53 112.687L123.788 118.734H125.481L119.111 102.608H117.418ZM115.16 112.365L118.305 104.785H118.385L121.046 111.236L115.16 112.365Z" fill="white"/>
<path d="M29.8541 93.739L19.1304 99.9475V114.138C19.1304 120.669 24.3713 125.991 30.9023 125.991C33.0793 125.991 35.095 125.426 36.8689 124.459L45.5769 119.46C49.044 117.605 51.3822 114.058 51.3822 109.865V95.0291L49.2858 93.8196L40.0941 98.738V114.219C40.0941 114.864 40.0134 115.509 39.9328 116.154C39.7715 116.799 39.6103 117.363 39.3684 117.928L39.1265 118.412C38.804 118.412 36.7883 117.686 35.7401 116.96C35.2563 116.638 34.8531 116.315 34.45 115.912C34.0468 115.509 33.7243 115.106 33.4018 114.622C33.0793 114.138 31.9505 112.042 31.9505 109.946V94.9485L29.8541 93.739ZM35.095 122.927C34.5306 123.169 33.7243 123.491 33.0793 123.653C32.4343 123.814 31.8698 123.814 31.2248 123.814C30.5798 123.814 29.9347 123.733 29.2897 123.572C28.6447 123.411 28.0803 123.249 27.5159 123.008C26.9514 122.766 26.387 122.443 25.9033 122.121C24.5326 121.153 23.8875 120.347 23.3231 119.46C23.0006 118.976 22.6781 118.412 22.4362 117.847C22.1943 117.283 22.033 116.638 21.8718 115.993C21.5493 115.428 21.5493 114.783 21.5493 114.138V101.157L29.6122 96.2385V109.865C29.6122 115.025 33.4018 119.379 38.2396 120.427C38.0783 120.669 37.9171 120.911 37.6752 121.072C36.7883 121.959 36.0626 122.524 35.095 122.927ZM48.8021 111.639C48.7214 112.203 48.4795 112.768 48.3183 113.251C48.0764 113.735 47.8345 114.219 47.512 114.703C47.1895 115.186 46.2219 116.396 44.9318 117.122C43.6418 117.847 42.4323 118.089 41.7067 118.25C42.1904 116.96 42.513 115.67 42.513 114.219V99.9475L48.9633 96.2385V109.865C48.9633 110.51 48.9633 111.074 48.8021 111.639Z" fill="white"/>
</svg>
