<svg width="220" height="220" viewBox="0 0 220 220" fill="none" xmlns="http://www.w3.org/2000/svg">
<rect width="220" height="220" rx="12" fill="#012333"/>
<path d="M195.033 154.876C198.27 154.876 200.869 152.276 200.869 149.084C200.869 145.892 198.247 143.293 195.033 143.293C191.818 143.293 189.196 145.892 189.196 149.084C189.173 152.299 191.795 154.876 195.033 154.876ZM93.2305 76.6259C96.4681 76.6259 99.0673 74.0267 99.0673 70.8347C99.0673 67.6427 96.4453 65.0435 93.2305 65.0435C89.9929 65.0435 87.3937 67.6427 87.3937 70.8347C87.3709 74.0495 89.9929 76.6259 93.2305 76.6259Z" fill="#00FF84"/>
<path d="M71.9353 113.152L62.2909 99.3575V113.152H52.3272V81.4139H62.3136V94.8203L72.2317 81.4823H84.0421L71.8897 96.4847L84.2245 113.152H71.9353ZM98.2237 81.4139H88.2373V113.129H98.2237V81.4139ZM88.0549 138.391C88.0549 128.929 93.8917 121.724 103.08 121.724C107.686 121.724 111.288 123.89 112.998 127.105V122.568H122.985V154.214H112.998V149.746C111.288 152.892 107.344 155.058 102.966 155.058C93.5041 155.081 88.0549 147.922 88.0549 138.391ZM113.386 138.391C113.386 133.854 110.832 130.115 105.839 130.115C101.188 130.115 98.2921 133.603 98.2921 138.391C98.2921 143.179 101.188 146.736 105.839 146.736C110.832 146.736 113.386 142.997 113.386 138.391ZM128.844 122.591H138.876V129.226C139.993 124.506 143.733 122.066 147.609 122.066C148.794 122.066 149.455 122.135 150.231 122.34L150.185 131.665C148.999 131.528 148.452 131.46 147.221 131.46C141.772 131.46 138.876 134.994 138.876 142.016V154.237H128.844V122.591ZM152.283 138.391C152.283 128.017 159.054 121.724 169.337 121.724C179.187 121.724 185.89 127.835 185.89 136.75C185.89 138.391 185.821 139.372 185.616 141.15H162.246C162.451 145.277 165.21 147.511 169.656 147.511C172.734 147.511 174.718 146.668 175.561 144.684H185.411C184.431 150.908 178.069 155.058 169.656 155.058C158.917 155.081 152.283 148.97 152.283 138.391ZM175.972 134.926C175.903 130.73 173.555 128.496 169.269 128.496C164.937 128.496 162.315 131.05 162.246 134.926H175.972ZM114.07 103.735V81.4367H104.038V104.077V113.174H114.07H128.388V103.758H114.07V103.735ZM143.869 103.735V81.4367H133.837V104.077V113.174H143.869H158.188V103.758H143.869V103.735ZM74.1925 122.568V133.968H62.154V122.568H52.3272V133.968V143.065V154.306H62.1768V143.065H74.2153V154.306H84.0649V143.065V133.968V122.568H74.1925ZM39.924 135.427L33.7908 133.74C31.716 133.124 31.0092 132.212 31.0092 130.936C31.0092 129.522 32.1036 128.701 33.54 128.542C35.6148 128.291 37.2108 129.203 37.2108 131.437V131.574H47.7672V131.437C47.7672 125.122 42.432 121.633 33.4944 121.633C25.3548 121.633 19.974 125.578 19.974 131.574C19.974 136.385 22.8696 139.6 27.9084 140.854L34.2468 142.45C36.1164 143.042 36.8916 143.954 36.8688 145.414C36.8688 146.987 35.2728 147.899 33.654 147.967C31.3056 148.081 29.5956 146.804 29.4588 144.775H19.1304C19.29 150.817 25.1952 155.081 34.0644 155.081C42.4548 155.081 47.904 151.205 47.904 144.616C47.9268 139.782 44.9172 136.75 39.924 135.427ZM39.924 94.3643L33.7908 92.6771C31.716 92.0615 31.0092 91.1495 31.0092 89.8727C31.0092 88.4591 32.1036 87.6383 33.54 87.4787C35.6148 87.2279 37.2108 88.1399 37.2108 90.3743V90.5111H47.7672V90.3743C47.7672 84.0587 42.432 80.5703 33.4944 80.5703C25.3548 80.5703 19.974 84.5147 19.974 90.5111C19.974 95.3219 22.8696 98.5367 27.9084 99.7907L34.2468 101.387C36.1164 101.98 36.8916 102.892 36.8688 104.351C36.8688 105.924 35.2728 106.836 33.654 106.904C31.3056 107.018 29.5956 105.742 29.4588 103.712H19.1304C19.29 109.754 25.1952 114.018 34.0644 114.018C42.4548 114.018 47.904 110.142 47.904 103.553C47.9268 98.6963 44.9172 95.6867 39.924 94.3643Z" fill="white"/>
</svg>
