<svg width="220" height="220" viewBox="0 0 220 220" fill="none" xmlns="http://www.w3.org/2000/svg">
<rect width="220" height="220" rx="12" fill="#0056D2"/>
<path d="M110.473 105.683C110.584 103.548 111.349 101.802 112.546 100.441V98.6271H110.956C107.741 98.6271 105.021 99.8592 103.439 102.642H103.346V98.9332H95.1021V121.551H103.348V112.42C103.348 108.545 104.482 105.59 109.057 105.59C109.556 105.594 110.022 105.622 110.473 105.683ZM172.902 105.6C173.586 103.601 174.697 101.821 176.141 100.392V98.6254H174.554C171.338 98.6254 168.62 99.8567 167.03 102.639H166.941V98.9332H158.692V121.551H166.941V112.42C166.941 108.545 168.079 105.59 172.654 105.59L172.902 105.6ZM127.218 104.752C125.946 104.091 124.175 103.65 122.767 103.65C121.821 103.65 120.187 104.044 120.187 105.193C120.187 106.738 122.767 106.957 123.908 107.182C127.751 107.93 130.659 109.695 130.659 113.878C130.659 119.828 125.084 122.305 119.688 122.305C116.378 122.305 113.122 121.378 110.308 119.702L113.298 114.098C114.973 115.249 117.783 116.392 119.822 116.392C120.865 116.392 122.405 115.909 122.405 114.674C122.405 112.91 119.822 112.818 117.236 112.158C114.656 111.497 112.076 110.265 112.076 106.208C112.076 100.651 117.236 98.1862 122.321 98.1862C124.949 98.1862 127.58 98.5812 129.976 99.64L127.218 104.752H127.218ZM200.869 121.551H192.623V119.035H192.533C191.082 121.284 188.221 122.297 185.507 122.297C178.615 122.297 173.77 116.696 173.77 110.214C173.77 103.739 178.529 98.1809 185.415 98.1809C188.087 98.1809 190.901 99.1503 192.622 101.133V98.9332H200.866L200.87 121.551H200.869ZM182.29 110.263C182.29 113.127 184.242 115.332 187.591 115.332C190.943 115.332 192.886 113.131 192.886 110.263C192.886 107.485 190.943 105.149 187.591 105.149C184.242 105.151 182.29 107.485 182.29 110.263ZM157.392 111.589H140.031C140.031 114.849 141.803 116.611 145.2 116.611C146.967 116.611 148.234 116.04 149.143 114.539H157.075C155.761 119.875 150.548 122.3 145.247 122.3C137.548 122.3 131.793 118.064 131.793 110.265C131.793 102.726 137.089 98.1862 144.656 98.1862C152.722 98.1862 157.395 103.038 157.395 110.75L157.391 111.589L157.392 111.589ZM149.732 106.957C149.322 104.796 147.283 103.386 145.065 103.386C142.661 103.386 140.675 104.616 140.168 106.957H149.732ZM68.8746 109.869C68.8657 109.676 68.8534 109.483 68.8376 109.29V109.284C68.6526 107.185 67.9593 105.222 66.7831 103.448C66.265 102.666 65.6623 101.944 64.9859 101.294C64.0047 100.35 62.8688 99.5692 61.5883 98.9517C59.6615 98.0314 57.5326 97.567 55.261 97.567C55.039 97.567 54.8066 97.5702 54.5728 97.5787C52.9777 97.651 51.4346 97.9538 49.984 98.4873C48.5213 99.0158 47.2476 99.714 46.206 100.552C45.9942 100.72 45.7636 100.927 45.5163 101.155L45.3376 101.329L45.0938 101.588H45.097L44.9828 101.701L44.9273 101.762L44.6362 102.068C44.4264 102.304 44.2222 102.545 44.0237 102.79L44.0219 102.787L44.0148 102.78C43.6162 103.265 43.2479 103.766 42.9767 104.217C42.7922 104.508 42.6139 104.803 42.4418 105.102L40.0641 109.91L40.0673 109.913L39.9428 110.157L39.6801 110.689C39.1588 111.744 38.6 112.796 37.9754 113.664C36.5839 115.19 35.0109 115.938 32.9881 115.938C32.8465 115.938 32.702 115.931 32.5539 115.922C31.3354 115.874 30.2905 115.586 29.3634 115.037C29.2656 114.98 29.1695 114.919 29.0752 114.856C28.3182 114.353 27.7378 113.706 27.3036 112.9C26.8139 111.986 26.5968 111.052 26.6274 110.063C26.6288 110.036 26.6306 110.013 26.6306 109.99C26.6961 108.416 27.2968 107.19 28.5068 106.132C28.7949 105.885 29.104 105.664 29.4307 105.471C29.4759 105.444 29.5214 105.418 29.567 105.395C30.4656 104.905 31.4888 104.661 32.6614 104.661L33.0265 104.671C34.8896 104.742 36.3266 105.325 37.4726 106.46L41.067 100.007C40.2068 99.4314 39.236 98.9364 38.1658 98.5343C38.1253 98.5193 38.0833 98.5022 38.0413 98.4891C37.9132 98.4435 37.7872 98.3965 37.6559 98.3542C36.5185 97.9741 35.3252 97.7403 34.097 97.6342C34.0664 97.6289 34.033 97.6257 34.0027 97.6225C33.8141 97.6104 33.6223 97.5869 33.434 97.5787C33.2292 97.5709 33.0243 97.5664 32.8194 97.5652H32.703C30.4432 97.5734 28.3435 98.0364 26.4231 98.9531C24.2725 99.9898 22.5291 101.499 21.2368 103.444C19.9482 105.39 19.2446 107.549 19.1439 109.867C19.1352 110.063 19.1307 110.259 19.1304 110.456C19.1286 113.696 20.3101 116.547 22.659 118.94C25.111 121.45 28.2997 122.803 32.1279 122.963C32.3735 122.973 32.6162 122.98 32.8582 122.98C35.0241 122.98 37.0281 122.594 38.8253 121.824C39.2748 121.632 39.7107 121.406 40.1563 121.156C40.399 121.016 40.6278 120.868 40.8549 120.71L41.0232 120.597L41.3058 120.404C41.6432 120.159 41.9663 119.896 42.2734 119.614L42.3813 119.512C42.5637 119.34 42.7421 119.164 42.9162 118.983L43.5607 118.255L43.8062 117.947L43.9208 117.779L44.0354 117.613C44.9928 116.005 48.1092 110.151 48.1092 110.151V110.139L48.2943 109.782L48.4491 109.503C48.9085 108.666 49.2402 108.072 49.6794 107.448L49.6911 107.43C50.7161 105.944 52.4777 104.885 54.5543 104.707C58.0376 104.407 61.09 106.696 61.3712 109.819C61.6506 112.942 59.0523 115.717 55.5689 116.018C54.8436 116.081 54.1386 116.032 53.4738 115.885L53.4571 115.892C50.9011 115.36 49.2737 113.496 48.4711 112.663L45.1187 118.827C45.1187 118.827 46.1608 119.877 46.8743 120.402C47.5896 120.925 48.5131 121.44 49.2502 121.76C51.0388 122.524 52.9841 122.982 55.1329 122.982C55.382 122.982 55.3319 122.982 55.5909 122.972C59.4156 122.812 62.825 121.346 65.2838 118.835C67.6127 116.451 68.8764 113.728 68.8882 110.505V110.409C68.8861 110.229 68.8816 110.049 68.8746 109.869ZM81.6975 122.315C79.959 122.315 78.3824 122.113 76.9671 121.709C75.5517 121.305 74.3435 120.668 73.3424 119.793C72.3377 118.917 71.5637 117.804 71.0185 116.453C70.4733 115.101 70.2007 113.472 70.2007 111.574V98.9282H78.155V111.473C78.155 112.895 78.4949 113.925 79.1728 114.568C79.8529 115.212 80.7163 115.534 81.7629 115.534C82.8331 115.534 83.7014 115.234 84.3716 114.633C85.0378 114.033 85.3741 113.036 85.3741 111.636V98.9279H93.3284V111.408C93.3284 113.373 93.0494 115.044 92.4921 116.419C91.9351 117.795 91.1494 118.92 90.1379 119.794C89.1215 120.67 87.8984 121.305 86.4595 121.711C85.0207 122.113 83.4338 122.315 81.6975 122.315V122.315Z" fill="white"/>
</svg>
